<svg xmlns="http://www.w3.org/2000/svg" xmlns:xlink="http://www.w3.org/1999/xlink" width="2000" zoomAndPan="magnify" viewBox="0 0 1500 1499.999933" height="2000" preserveAspectRatio="xMidYMid meet" version="1.0"><defs><g/><clipPath id="cba85e5f1c"><rect x="0" width="811" y="0" height="248"/></clipPath><clipPath id="505e443b88"><path d="M 283 780 L 410 780 L 410 886.402344 L 283 886.402344 Z M 283 780 " clip-rule="nonzero"/></clipPath><clipPath id="0550755178"><path d="M 182.152344 713 L 386 713 L 386 886.402344 L 182.152344 886.402344 Z M 182.152344 713 " clip-rule="nonzero"/></clipPath><clipPath id="f760784f19"><path d="M 358 602.902344 L 378 602.902344 L 378 622 L 358 622 Z M 358 602.902344 " clip-rule="nonzero"/></clipPath></defs><g transform="matrix(1, 0, 0, 1, 408, 660)"><g clip-path="url(#cba85e5f1c)"><g fill="#80cc28" fill-opacity="1"><g transform="translate(0.777244, 194.786045)"><g><path d="M 102.75 -138.5 C 99.988281 -136.25 98.453125 -133.175781 98.140625 -129.28125 C 97.828125 -125.394531 98.863281 -122.070312 101.25 -119.3125 C 103 -117.300781 105.253906 -116.015625 108.015625 -115.453125 C 110.773438 -114.890625 113.441406 -115.171875 116.015625 -116.296875 C 118.585938 -117.429688 120.3125 -119.316406 121.1875 -121.953125 C 122.195312 -124.328125 122.257812 -126.425781 121.375 -128.25 C 120.5 -130.070312 119.273438 -131.796875 117.703125 -133.421875 C 116.140625 -135.054688 114.734375 -136.625 113.484375 -138.125 C 116.367188 -138.25 118.875 -137.523438 121 -135.953125 C 123.132812 -134.390625 124.703125 -132.351562 125.703125 -129.84375 C 126.710938 -127.332031 126.773438 -124.703125 125.890625 -121.953125 C 125.265625 -117.929688 123.445312 -114.632812 120.4375 -112.0625 C 117.425781 -109.488281 113.972656 -107.734375 110.078125 -106.796875 C 106.191406 -105.859375 102.367188 -105.640625 98.609375 -106.140625 C 88.316406 -107.265625 78.25 -109.550781 68.40625 -113 C 58.5625 -116.457031 48.679688 -119.753906 38.765625 -122.890625 C 34.753906 -124.015625 30.550781 -124.796875 26.15625 -125.234375 C 21.769531 -125.671875 17.566406 -124.828125 13.546875 -122.703125 C 10.660156 -121.066406 8.554688 -118.679688 7.234375 -115.546875 C 5.921875 -112.410156 5.484375 -109.179688 5.921875 -105.859375 C 6.367188 -102.535156 7.84375 -99.679688 10.34375 -97.296875 C 12.976562 -94.535156 16.363281 -93.3125 20.5 -93.625 C 24.644531 -93.9375 27.910156 -95.472656 30.296875 -98.234375 C 32.054688 -100.242188 32.9375 -102.597656 32.9375 -105.296875 C 32.9375 -107.992188 32.210938 -110.46875 30.765625 -112.71875 C 29.328125 -114.976562 27.226562 -116.296875 24.46875 -116.671875 C 22.332031 -117.304688 20.414062 -117.117188 18.71875 -116.109375 C 17.03125 -115.109375 15.429688 -113.882812 13.921875 -112.4375 C 12.421875 -111 10.851562 -109.773438 9.21875 -108.765625 C 9.84375 -111.523438 11.003906 -114.128906 12.703125 -116.578125 C 14.398438 -119.023438 16.691406 -120.5 19.578125 -121 C 23.960938 -121.882812 28.253906 -121.820312 32.453125 -120.8125 C 36.660156 -119.8125 40.832031 -118.492188 44.96875 -116.859375 C 49.113281 -115.234375 53.191406 -113.851562 57.203125 -112.71875 C 57.585938 -94.65625 57.710938 -76.585938 57.578125 -58.515625 C 57.453125 -40.453125 57.453125 -22.390625 57.578125 -4.328125 C 54.816406 -4.203125 52.117188 -4.078125 49.484375 -3.953125 C 46.859375 -3.828125 44.226562 -3.640625 41.59375 -3.390625 C 43.851562 -1.378906 46.738281 -0.5 50.25 -0.75 C 55.769531 -0.75 61.289062 -0.78125 66.8125 -0.84375 C 72.332031 -0.90625 77.847656 -0.875 83.359375 -0.75 C 85.492188 -0.75 87.628906 -0.8125 89.765625 -0.9375 C 91.898438 -1.0625 93.65625 -2.003906 95.03125 -3.765625 C 92.269531 -4.015625 89.445312 -4.140625 86.5625 -4.140625 C 83.675781 -4.140625 80.789062 -4.203125 77.90625 -4.328125 C 78.03125 -21.265625 78.03125 -38.203125 77.90625 -55.140625 C 77.78125 -72.078125 77.90625 -89.078125 78.28125 -106.140625 C 84.425781 -104.503906 90.726562 -103.148438 97.1875 -102.078125 C 103.65625 -101.015625 109.960938 -101.800781 116.109375 -104.4375 C 119.742188 -105.945312 122.816406 -108.332031 125.328125 -111.59375 C 127.835938 -114.851562 129.40625 -118.488281 130.03125 -122.5 C 130.664062 -126.519531 129.976562 -130.285156 127.96875 -133.796875 C 126.457031 -136.804688 124.164062 -139 121.09375 -140.375 C 118.019531 -141.757812 114.820312 -142.328125 111.5 -142.078125 C 108.175781 -141.828125 105.257812 -140.632812 102.75 -138.5 Z M 102.75 -138.5 "/></g></g></g><g fill="#80cc28" fill-opacity="1"><g transform="translate(128.364645, 194.786045)"><g><path d="M 8.09375 -140.203125 C 10.976562 -137.191406 13.453125 -133.863281 15.515625 -130.21875 C 17.585938 -126.582031 19.816406 -123.070312 22.203125 -119.6875 C 24.210938 -117.175781 26.722656 -116.046875 29.734375 -116.296875 C 32.742188 -116.546875 35.628906 -116.734375 38.390625 -116.859375 C 36.503906 -119.742188 34.367188 -122.472656 31.984375 -125.046875 C 29.609375 -127.617188 27.164062 -130.035156 24.65625 -132.296875 C 27.789062 -130.910156 30.863281 -129.335938 33.875 -127.578125 C 36.882812 -125.828125 39.832031 -123.953125 42.71875 -121.953125 C 41.71875 -127.335938 39.332031 -131.472656 35.5625 -134.359375 C 31.800781 -137.242188 27.441406 -139.125 22.484375 -140 C 17.535156 -140.882812 12.738281 -140.953125 8.09375 -140.203125 Z M 49.6875 -118.9375 C 51.5625 -119.9375 53.410156 -121 55.234375 -122.125 C 57.054688 -123.257812 58.90625 -124.390625 60.78125 -125.515625 L 54.578125 -113.671875 C 57.835938 -113.285156 60.40625 -113.78125 62.28125 -115.15625 C 64.164062 -116.539062 65.671875 -118.394531 66.796875 -120.71875 C 67.929688 -123.039062 68.90625 -125.519531 69.71875 -128.15625 C 70.539062 -130.789062 71.453125 -133.175781 72.453125 -135.3125 C 69.191406 -134.9375 65.960938 -134.148438 62.765625 -132.953125 C 59.566406 -131.765625 56.773438 -130.039062 54.390625 -127.78125 C 52.003906 -125.519531 50.4375 -122.570312 49.6875 -118.9375 Z M 40.65625 -117.421875 C 41.90625 -113.660156 43.0625 -109.863281 44.125 -106.03125 C 45.195312 -102.207031 45.984375 -98.351562 46.484375 -94.46875 C 42.597656 -93.71875 38.675781 -92.898438 34.71875 -92.015625 C 30.769531 -91.140625 27.164062 -89.507812 23.90625 -87.125 C 18.257812 -83.363281 13.992188 -78.378906 11.109375 -72.171875 C 8.222656 -65.960938 6.460938 -59.53125 5.828125 -52.875 C 5.203125 -45.726562 5.515625 -38.453125 6.765625 -31.046875 C 8.023438 -23.648438 10.914062 -17.003906 15.4375 -11.109375 C 18.820312 -6.710938 23.019531 -3.351562 28.03125 -1.03125 C 33.050781 1.289062 38.351562 2.546875 43.9375 2.734375 C 49.519531 2.921875 54.820312 2.132812 59.84375 0.375 C 66.363281 -1.882812 71.628906 -5.929688 75.640625 -11.765625 C 79.660156 -17.597656 81.984375 -23.898438 82.609375 -30.671875 C 80.484375 -29.046875 78.820312 -27.039062 77.625 -24.65625 C 76.4375 -22.269531 75.304688 -19.851562 74.234375 -17.40625 C 73.171875 -14.957031 71.695312 -12.796875 69.8125 -10.921875 C 66.675781 -7.273438 62.628906 -4.820312 57.671875 -3.5625 C 52.722656 -2.3125 47.863281 -2.375 43.09375 -3.75 C 38.320312 -5.132812 34.429688 -7.835938 31.421875 -11.859375 C 28.035156 -16.367188 26.0625 -21.382812 25.5 -26.90625 C 24.9375 -32.425781 24.53125 -37.882812 24.28125 -43.28125 C 29.675781 -43.53125 35.160156 -43.625 40.734375 -43.5625 C 46.316406 -43.5 51.835938 -43.875 57.296875 -44.6875 C 62.753906 -45.507812 67.929688 -47.363281 72.828125 -50.25 C 76.960938 -52.632812 79.816406 -56.082031 81.390625 -60.59375 C 82.960938 -65.113281 83.242188 -69.753906 82.234375 -74.515625 C 81.234375 -79.285156 78.914062 -83.113281 75.28125 -86 C 71.757812 -89.007812 67.832031 -91.015625 63.5 -92.015625 C 59.175781 -93.023438 54.820312 -93.78125 50.4375 -94.28125 C 50.6875 -97.789062 50.9375 -101.269531 51.1875 -104.71875 C 51.4375 -108.175781 51.6875 -111.660156 51.9375 -115.171875 C 50.8125 -112.160156 49.867188 -109.148438 49.109375 -106.140625 C 47.734375 -108.015625 46.320312 -109.925781 44.875 -111.875 C 43.4375 -113.820312 42.03125 -115.671875 40.65625 -117.421875 Z M 33.5 -84.875 C 35.882812 -87.632812 38.925781 -89.390625 42.625 -90.140625 C 46.320312 -90.890625 49.925781 -90.632812 53.4375 -89.375 C 56.957031 -88.125 59.46875 -85.742188 60.96875 -82.234375 C 62.351562 -79.097656 63.265625 -75.582031 63.703125 -71.6875 C 64.140625 -67.800781 63.789062 -64.132812 62.65625 -60.6875 C 61.53125 -57.238281 59.398438 -54.382812 56.265625 -52.125 C 53.128906 -50.113281 49.773438 -48.796875 46.203125 -48.171875 C 42.628906 -47.546875 38.957031 -47.265625 35.1875 -47.328125 C 31.425781 -47.390625 27.789062 -47.296875 24.28125 -47.046875 C 24.40625 -51.304688 24.59375 -55.695312 24.84375 -60.21875 C 25.09375 -64.738281 25.84375 -69.128906 27.09375 -73.390625 C 28.351562 -77.660156 30.488281 -81.488281 33.5 -84.875 Z M 33.5 -84.875 "/></g></g></g><g fill="#80cc28" fill-opacity="1"><g transform="translate(206.460023, 194.786045)"><g><path d="M 41.78125 -78.65625 C 46.164062 -80.414062 50.582031 -81.921875 55.03125 -83.171875 C 59.488281 -84.429688 64.039062 -84.75 68.6875 -84.125 C 64.425781 -82.613281 60.253906 -80.851562 56.171875 -78.84375 C 52.097656 -76.84375 48.238281 -74.273438 44.59375 -71.140625 C 48.238281 -68.503906 52.441406 -66.867188 57.203125 -66.234375 C 61.972656 -65.609375 66.238281 -66.863281 70 -70 C 73.644531 -73.269531 77.253906 -76.566406 80.828125 -79.890625 C 84.398438 -83.210938 88.507812 -85.75 93.15625 -87.5 C 89.257812 -90.007812 84.800781 -91.890625 79.78125 -93.140625 C 74.769531 -94.398438 69.753906 -94.8125 64.734375 -94.375 C 59.710938 -93.9375 55.164062 -92.492188 51.09375 -90.046875 C 47.019531 -87.597656 43.914062 -83.800781 41.78125 -78.65625 Z M 3.203125 -87.5 C 5.710938 -87.375 8.1875 -87.25 10.625 -87.125 C 13.070312 -87 15.550781 -86.875 18.0625 -86.75 L 18.0625 -4.515625 C 15.675781 -4.390625 13.289062 -4.265625 10.90625 -4.140625 C 8.53125 -4.015625 6.085938 -3.828125 3.578125 -3.578125 C 5.835938 -1.941406 8.316406 -1.03125 11.015625 -0.84375 C 13.710938 -0.65625 16.503906 -0.75 19.390625 -1.125 C 22.273438 -1.5 25.03125 -1.5 27.65625 -1.125 C 30.039062 -1.5 32.550781 -1.5 35.1875 -1.125 C 37.820312 -0.75 40.394531 -0.65625 42.90625 -0.84375 C 45.414062 -1.03125 47.613281 -2.003906 49.5 -3.765625 C 47.238281 -4.015625 44.976562 -4.171875 42.71875 -4.234375 C 40.457031 -4.296875 38.132812 -4.390625 35.75 -4.515625 C 36 -13.546875 36.0625 -22.546875 35.9375 -31.515625 C 35.8125 -40.492188 35.8125 -49.5 35.9375 -58.53125 C 35.9375 -61.414062 36.6875 -63.953125 38.1875 -66.140625 C 39.695312 -68.335938 41.457031 -70.472656 43.46875 -72.546875 C 45.476562 -74.617188 47.109375 -76.78125 48.359375 -79.03125 C 46.234375 -77.65625 44.132812 -76.242188 42.0625 -74.796875 C 39.988281 -73.359375 37.882812 -71.882812 35.75 -70.375 C 35.875 -74.019531 35.96875 -77.628906 36.03125 -81.203125 C 36.09375 -84.773438 35.9375 -88.316406 35.5625 -91.828125 C 32.050781 -91.328125 28.378906 -91.109375 24.546875 -91.171875 C 20.722656 -91.234375 16.992188 -91.109375 13.359375 -90.796875 C 9.722656 -90.484375 6.335938 -89.382812 3.203125 -87.5 Z M 76.40625 -73.765625 C 77.28125 -62.222656 77.65625 -50.679688 77.53125 -39.140625 C 77.40625 -27.597656 77.40625 -16.054688 77.53125 -4.515625 L 63.609375 -3.953125 C 63.984375 -3.578125 64.453125 -3.070312 65.015625 -2.4375 C 65.578125 -1.8125 66.050781 -1.3125 66.4375 -0.9375 C 72.332031 -1.1875 78.226562 -1.25 84.125 -1.125 C 90.019531 -1 95.851562 -1 101.625 -1.125 C 104.382812 -1.125 106.765625 -1.941406 108.765625 -3.578125 C 104.128906 -4.078125 99.488281 -4.453125 94.84375 -4.703125 C 94.59375 -13.359375 94.625 -22.015625 94.9375 -30.671875 C 95.25 -39.328125 95.25 -47.984375 94.9375 -56.640625 C 94.625 -65.296875 93.210938 -73.765625 90.703125 -82.046875 C 88.066406 -81.171875 85.554688 -80.007812 83.171875 -78.5625 C 80.796875 -77.125 78.539062 -75.523438 76.40625 -73.765625 Z M 76.40625 -73.765625 "/></g></g></g><g fill="#80cc28" fill-opacity="1"><g transform="translate(308.642779, 194.786045)"><g><path d="M 17.5 -83.9375 C 15.738281 -81.675781 14.703125 -79.101562 14.390625 -76.21875 C 14.078125 -73.332031 14.421875 -70.570312 15.421875 -67.9375 C 16.429688 -65.300781 18 -63.132812 20.125 -61.4375 C 22.257812 -59.75 24.898438 -59.03125 28.046875 -59.28125 C 30.671875 -59.15625 32.863281 -59.84375 34.625 -61.34375 C 36.382812 -62.851562 37.609375 -64.800781 38.296875 -67.1875 C 38.984375 -69.570312 38.984375 -71.890625 38.296875 -74.140625 C 37.609375 -76.398438 36.132812 -78.160156 33.875 -79.421875 C 31.738281 -80.671875 29.695312 -80.914062 27.75 -80.15625 C 25.8125 -79.40625 23.992188 -78.273438 22.296875 -76.765625 C 20.609375 -75.265625 18.945312 -73.953125 17.3125 -72.828125 C 17.8125 -77.097656 19.316406 -80.609375 21.828125 -83.359375 C 24.335938 -86.117188 27.441406 -88.125 31.140625 -89.375 C 34.847656 -90.632812 38.707031 -91.234375 42.71875 -91.171875 C 46.726562 -91.109375 50.429688 -90.390625 53.828125 -89.015625 C 57.835938 -87.378906 60.75 -84.550781 62.5625 -80.53125 C 64.382812 -76.519531 65.421875 -72.507812 65.671875 -68.5 C 66.179688 -61.09375 66.398438 -53.65625 66.328125 -46.1875 C 66.265625 -38.726562 65.984375 -31.300781 65.484375 -23.90625 C 68.367188 -23.394531 71.347656 -22.890625 74.421875 -22.390625 C 77.492188 -21.890625 80.539062 -21.453125 83.5625 -21.078125 C 83.425781 -30.109375 83.484375 -39.203125 83.734375 -48.359375 C 83.992188 -57.523438 83.054688 -66.5 80.921875 -75.28125 C 79.535156 -80.925781 76.425781 -85.441406 71.59375 -88.828125 C 66.769531 -92.210938 61.535156 -94.09375 55.890625 -94.46875 C 51.503906 -94.96875 46.894531 -95.125 42.0625 -94.9375 C 37.226562 -94.75 32.644531 -93.835938 28.3125 -92.203125 C 23.988281 -90.578125 20.382812 -87.820312 17.5 -83.9375 Z M 21.078125 -47.609375 C 16.554688 -45.222656 13.132812 -41.644531 10.8125 -36.875 C 8.5 -32.113281 7.53125 -27.128906 7.90625 -21.921875 C 8.28125 -16.710938 10.347656 -12.164062 14.109375 -8.28125 C 17.242188 -4.894531 20.910156 -2.382812 25.109375 -0.75 C 29.316406 0.875 33.710938 1.84375 38.296875 2.15625 C 42.878906 2.476562 47.300781 2.515625 51.5625 2.265625 C 46.914062 1.253906 42.113281 0.5 37.15625 0 C 32.207031 -0.5 27.726562 -2.128906 23.71875 -4.890625 C 20.320312 -7.023438 17.648438 -9.941406 15.703125 -13.640625 C 13.765625 -17.335938 13.046875 -21.132812 13.546875 -25.03125 C 13.921875 -28.914062 15.175781 -32.425781 17.3125 -35.5625 C 19.445312 -38.695312 22.144531 -41.300781 25.40625 -43.375 C 28.664062 -45.445312 32.175781 -46.609375 35.9375 -46.859375 C 39.082031 -47.609375 42.097656 -47.578125 44.984375 -46.765625 C 47.867188 -45.953125 50.6875 -44.851562 53.4375 -43.46875 C 56.195312 -42.09375 58.957031 -40.898438 61.71875 -39.890625 C 58.957031 -44.410156 55.191406 -47.609375 50.421875 -49.484375 C 45.660156 -51.367188 40.675781 -52.125 35.46875 -51.75 C 30.257812 -51.375 25.460938 -49.992188 21.078125 -47.609375 Z M 37.640625 -1.5 C 43.535156 -1.125 49.335938 -1.375 55.046875 -2.25 C 60.753906 -3.132812 66.304688 -4.453125 71.703125 -6.203125 C 67.554688 -1.941406 62.691406 1.09375 57.109375 2.90625 C 51.523438 4.726562 45.847656 6.144531 40.078125 7.15625 C 45.972656 10.289062 51.929688 11.671875 57.953125 11.296875 C 63.984375 10.921875 69.757812 9.222656 75.28125 6.203125 C 80.800781 3.191406 85.660156 -0.722656 89.859375 -5.546875 C 94.054688 -10.378906 97.285156 -15.554688 99.546875 -21.078125 C 95.160156 -18.941406 90.675781 -17.875 86.09375 -17.875 C 81.519531 -17.875 76.910156 -18.1875 72.265625 -18.8125 C 67.617188 -19.445312 62.976562 -19.570312 58.34375 -19.1875 C 53.320312 -18.6875 49.050781 -16.710938 45.53125 -13.265625 C 42.019531 -9.816406 39.390625 -5.894531 37.640625 -1.5 Z M 37.640625 -1.5 "/></g></g></g><g fill="#80cc28" fill-opacity="1"><g transform="translate(401.980966, 194.786045)"><g/></g></g><g fill="#01adef" fill-opacity="1"><g transform="translate(435.678924, 194.786045)"><g><path d="M 4.328125 -126.078125 C 5.835938 -124.578125 7.65625 -123.703125 9.78125 -123.453125 C 11.914062 -123.203125 14.082031 -123.078125 16.28125 -123.078125 C 18.476562 -123.078125 20.515625 -122.789062 22.390625 -122.21875 C 24.273438 -121.65625 25.65625 -120.3125 26.53125 -118.1875 C 27.28125 -106.519531 27.53125 -94.816406 27.28125 -83.078125 C 27.03125 -71.347656 26.96875 -59.648438 27.09375 -47.984375 C 26.96875 -42.210938 27.0625 -36.410156 27.375 -30.578125 C 27.695312 -24.742188 26.789062 -19.066406 24.65625 -13.546875 C 23.394531 -10.785156 21.539062 -8.742188 19.09375 -7.421875 C 16.65625 -6.109375 14.023438 -5.265625 11.203125 -4.890625 C 8.378906 -4.515625 5.648438 -4.140625 3.015625 -3.765625 L 2.828125 -0.75 C 11.984375 -0.75 21.078125 -0.75 30.109375 -0.75 C 39.140625 -0.75 48.171875 -0.8125 57.203125 -0.9375 L 57.015625 -3.765625 C 53.503906 -4.265625 49.800781 -4.671875 45.90625 -4.984375 C 42.019531 -5.296875 38.757812 -6.894531 36.125 -9.78125 C 33.5 -13.039062 32.085938 -16.707031 31.890625 -20.78125 C 31.703125 -24.863281 31.484375 -28.851562 31.234375 -32.75 C 31.484375 -46.539062 31.515625 -60.273438 31.328125 -73.953125 C 31.140625 -87.628906 31.234375 -101.304688 31.609375 -114.984375 C 33.992188 -108.960938 36.347656 -102.910156 38.671875 -96.828125 C 40.992188 -90.742188 43.160156 -84.625 45.171875 -78.46875 C 46.921875 -82.863281 48.832031 -87.160156 50.90625 -91.359375 C 52.976562 -95.566406 55.519531 -99.425781 58.53125 -102.9375 C 57.269531 -106.945312 55.914062 -110.894531 54.46875 -114.78125 C 53.03125 -118.675781 51.625 -122.570312 50.25 -126.46875 C 42.59375 -126.59375 34.9375 -126.6875 27.28125 -126.75 C 19.632812 -126.8125 11.984375 -126.585938 4.328125 -126.078125 Z M 120.8125 -126.46875 C 119.1875 -120.4375 117.242188 -114.472656 114.984375 -108.578125 C 112.722656 -102.679688 110.617188 -96.722656 108.671875 -90.703125 C 106.734375 -84.679688 105.320312 -78.535156 104.4375 -72.265625 C 107.832031 -76.273438 110.34375 -80.726562 111.96875 -85.625 C 113.601562 -90.519531 115.078125 -95.535156 116.390625 -100.671875 C 117.710938 -105.816406 119.566406 -110.648438 121.953125 -115.171875 C 122.203125 -96.722656 122.265625 -78.28125 122.140625 -59.84375 C 122.015625 -41.40625 122.015625 -22.960938 122.140625 -4.515625 C 119.503906 -4.390625 116.867188 -4.265625 114.234375 -4.140625 C 111.597656 -4.015625 108.960938 -3.765625 106.328125 -3.390625 C 107.828125 -1.753906 109.582031 -0.90625 111.59375 -0.84375 C 113.601562 -0.78125 115.613281 -0.6875 117.625 -0.5625 C 124.269531 -0.6875 130.976562 -0.78125 137.75 -0.84375 C 144.53125 -0.90625 151.242188 -0.8125 157.890625 -0.5625 L 158.453125 -4.140625 C 155.816406 -4.140625 153.179688 -4.140625 150.546875 -4.140625 C 147.910156 -4.140625 145.273438 -4.140625 142.640625 -4.140625 C 142.515625 -23.960938 142.484375 -43.785156 142.546875 -63.609375 C 142.609375 -83.429688 142.578125 -103.253906 142.453125 -123.078125 C 144.335938 -123.328125 146.34375 -123.359375 148.46875 -123.171875 C 150.601562 -122.984375 152.675781 -123.015625 154.6875 -123.265625 C 156.695312 -123.515625 158.390625 -124.519531 159.765625 -126.28125 C 153.242188 -126.65625 146.753906 -126.78125 140.296875 -126.65625 C 133.835938 -126.53125 127.34375 -126.46875 120.8125 -126.46875 Z M 50.625 -73.203125 C 50.125 -69.441406 50.59375 -65.863281 52.03125 -62.46875 C 53.476562 -59.082031 55.078125 -55.757812 56.828125 -52.5 L 60.59375 -57.78125 C 60.84375 -53.007812 62.066406 -48.707031 64.265625 -44.875 C 66.460938 -41.050781 69.160156 -37.507812 72.359375 -34.25 C 75.554688 -30.988281 78.722656 -27.851562 81.859375 -24.84375 C 78.472656 -23.832031 74.988281 -22.953125 71.40625 -22.203125 C 67.832031 -21.453125 64.476562 -20.007812 61.34375 -17.875 C 59.34375 -16.5 58.3125 -14.617188 58.25 -12.234375 C 58.1875 -9.847656 59.03125 -7.835938 60.78125 -6.203125 C 63.414062 -3.953125 66.488281 -2.507812 70 -1.875 C 73.519531 -1.25 77.003906 -1.46875 80.453125 -2.53125 C 83.898438 -3.601562 86.691406 -5.519531 88.828125 -8.28125 C 90.578125 -10.289062 91.359375 -12.609375 91.171875 -15.234375 C 90.984375 -17.867188 90.890625 -20.378906 90.890625 -22.765625 C 92.648438 -24.898438 94.40625 -27.191406 96.15625 -29.640625 C 97.914062 -32.085938 98.859375 -34.753906 98.984375 -37.640625 C 98.859375 -41.273438 98.453125 -44.941406 97.765625 -48.640625 C 97.078125 -52.347656 97.296875 -55.957031 98.421875 -59.46875 C 100.179688 -55.582031 101.34375 -51.503906 101.90625 -47.234375 C 102.46875 -42.972656 102.9375 -38.644531 103.3125 -34.25 C 106.570312 -38.007812 108.546875 -42.113281 109.234375 -46.5625 C 109.929688 -51.019531 109.617188 -55.445312 108.296875 -59.84375 C 106.984375 -64.238281 104.976562 -68.378906 102.28125 -72.265625 C 99.582031 -76.148438 96.476562 -79.472656 92.96875 -82.234375 C 92.84375 -77.472656 91.835938 -72.894531 89.953125 -68.5 C 88.066406 -64.101562 86.25 -59.710938 84.5 -55.328125 C 83.238281 -52.441406 82.984375 -49.492188 83.734375 -46.484375 C 84.492188 -43.472656 86.03125 -40.929688 88.34375 -38.859375 C 90.664062 -36.785156 93.398438 -35.625 96.546875 -35.375 C 95.410156 -34.75 94.304688 -33.679688 93.234375 -32.171875 C 92.171875 -30.671875 91.078125 -29.507812 89.953125 -28.6875 C 88.828125 -27.875 87.507812 -28.035156 86 -29.171875 C 81.738281 -32.429688 77.472656 -35.941406 73.203125 -39.703125 C 68.941406 -43.472656 66.054688 -48.050781 64.546875 -53.4375 C 63.671875 -57.082031 63.007812 -60.878906 62.5625 -64.828125 C 62.125 -68.785156 62.3125 -72.644531 63.125 -76.40625 C 63.945312 -80.164062 65.738281 -83.550781 68.5 -86.5625 C 67.5 -80.914062 66.867188 -75.207031 66.609375 -69.4375 C 66.359375 -63.664062 66.613281 -57.894531 67.375 -52.125 C 72.132812 -53.507812 76.394531 -56.050781 80.15625 -59.75 C 83.925781 -63.445312 85.6875 -67.992188 85.4375 -73.390625 C 85.1875 -78.160156 84.335938 -82.832031 82.890625 -87.40625 C 81.453125 -91.988281 80.351562 -96.628906 79.59375 -101.328125 C 78.84375 -106.035156 79.347656 -110.773438 81.109375 -115.546875 C 75.835938 -112.660156 70.972656 -109.113281 66.515625 -104.90625 C 62.066406 -100.707031 58.398438 -95.941406 55.515625 -90.609375 C 52.628906 -85.273438 51 -79.472656 50.625 -73.203125 Z M 65.296875 -12.609375 C 67.929688 -15.242188 71.097656 -16.875 74.796875 -17.5 C 78.503906 -18.125 81.988281 -18.941406 85.25 -19.953125 C 85.625 -17.191406 85.023438 -14.835938 83.453125 -12.890625 C 81.890625 -10.941406 79.914062 -9.5625 77.53125 -8.75 C 75.144531 -7.9375 72.789062 -7.8125 70.46875 -8.375 C 68.15625 -8.9375 66.429688 -10.347656 65.296875 -12.609375 Z M 65.296875 -12.609375 "/></g></g></g><g fill="#01adef" fill-opacity="1"><g transform="translate(589.235544, 194.786045)"><g><path d="M 2.828125 -126.28125 C 3.953125 -124.644531 5.390625 -123.671875 7.140625 -123.359375 C 8.898438 -123.046875 10.722656 -122.984375 12.609375 -123.171875 C 14.492188 -123.359375 16.25 -123.328125 17.875 -123.078125 C 18.125 -103.378906 18.1875 -83.617188 18.0625 -63.796875 C 17.9375 -43.972656 18 -24.148438 18.25 -4.328125 L 4.140625 -3.765625 C 4.265625 -3.390625 4.328125 -2.820312 4.328125 -2.0625 C 4.328125 -1.3125 4.328125 -0.75 4.328125 -0.375 C 20.265625 -0.5 36.195312 -0.53125 52.125 -0.46875 C 68.0625 -0.40625 83.992188 -0.375 99.921875 -0.375 C 100.171875 -7.90625 100.484375 -15.398438 100.859375 -22.859375 C 101.242188 -30.328125 101.4375 -37.828125 101.4375 -45.359375 C 101.1875 -45.859375 100.804688 -46.578125 100.296875 -47.515625 C 99.796875 -48.453125 99.421875 -49.175781 99.171875 -49.6875 C 98.296875 -45.164062 97.703125 -40.332031 97.390625 -35.1875 C 97.078125 -30.039062 96.195312 -25.175781 94.75 -20.59375 C 93.3125 -16.019531 90.394531 -12.226562 86 -9.21875 C 81.226562 -6.707031 76.144531 -5.140625 70.75 -4.515625 C 65.363281 -3.890625 59.941406 -3.703125 54.484375 -3.953125 C 49.023438 -4.203125 43.660156 -4.203125 38.390625 -3.953125 C 38.640625 -11.359375 38.640625 -18.726562 38.390625 -26.0625 C 38.140625 -33.40625 38.265625 -40.710938 38.765625 -47.984375 C 40.148438 -52.128906 42.472656 -55.675781 45.734375 -58.625 C 48.992188 -61.570312 52.503906 -64.109375 56.265625 -66.234375 C 58.148438 -62.972656 60.816406 -60.304688 64.265625 -58.234375 C 67.710938 -56.171875 71.382812 -55.765625 75.28125 -57.015625 C 79.539062 -58.773438 83.738281 -60.75 87.875 -62.9375 C 92.019531 -65.132812 96.414062 -66.488281 101.0625 -67 C 96.414062 -70.757812 91.300781 -74.082031 85.71875 -76.96875 C 80.132812 -79.851562 74.207031 -80.609375 67.9375 -79.234375 C 65.175781 -78.972656 62.820312 -77.898438 60.875 -76.015625 C 58.9375 -74.140625 57.273438 -72.132812 55.890625 -70 C 52.753906 -68.375 49.710938 -66.554688 46.765625 -64.546875 C 43.816406 -62.535156 40.960938 -60.34375 38.203125 -57.96875 C 38.453125 -68.875 38.546875 -79.753906 38.484375 -90.609375 C 38.421875 -101.460938 38.453125 -112.347656 38.578125 -123.265625 C 43.472656 -123.015625 48.457031 -122.984375 53.53125 -123.171875 C 58.613281 -123.359375 63.632812 -123.234375 68.59375 -122.796875 C 73.550781 -122.359375 78.285156 -121.070312 82.796875 -118.9375 C 86.941406 -116.675781 89.671875 -113.566406 90.984375 -109.609375 C 92.304688 -105.660156 93.0625 -101.457031 93.25 -97 C 93.4375 -92.550781 93.84375 -88.382812 94.46875 -84.5 C 94.71875 -85 95.09375 -85.65625 95.59375 -86.46875 C 96.101562 -87.289062 96.421875 -87.953125 96.546875 -88.453125 C 97.171875 -94.722656 97.359375 -101.054688 97.109375 -107.453125 C 96.859375 -113.847656 96.796875 -120.25 96.921875 -126.65625 C 81.234375 -126.53125 65.546875 -126.53125 49.859375 -126.65625 C 34.179688 -126.78125 18.503906 -126.65625 2.828125 -126.28125 Z M 59.28125 -72.453125 C 62.664062 -72.453125 66.050781 -72.359375 69.4375 -72.171875 C 72.820312 -71.984375 75.957031 -70.882812 78.84375 -68.875 C 75.457031 -68.75 72.132812 -69 68.875 -69.625 C 65.613281 -70.257812 62.414062 -71.203125 59.28125 -72.453125 Z M 59.28125 -72.453125 "/></g></g></g><g fill="#01adef" fill-opacity="1"><g transform="translate(684.455542, 194.786045)"><g><path d="M 2.828125 -128.53125 L 2.828125 -124.953125 C 5.078125 -125.078125 7.363281 -125.140625 9.6875 -125.140625 C 12.007812 -125.140625 14.300781 -125.203125 16.5625 -125.328125 C 16.8125 -105.378906 16.90625 -85.460938 16.84375 -65.578125 C 16.78125 -45.691406 16.8125 -25.835938 16.9375 -6.015625 C 14.175781 -5.890625 11.445312 -5.765625 8.75 -5.640625 C 6.050781 -5.515625 3.445312 -4.765625 0.9375 -3.390625 C 9.34375 -2.253906 17.8125 -1.84375 26.34375 -2.15625 C 34.875 -2.476562 43.34375 -2.515625 51.75 -2.265625 C 51.875 -2.765625 51.9375 -3.359375 51.9375 -4.046875 C 51.9375 -4.734375 52 -5.265625 52.125 -5.640625 C 49.613281 -5.765625 47.132812 -5.828125 44.6875 -5.828125 C 42.25 -5.828125 39.773438 -5.828125 37.265625 -5.828125 L 37.265625 -124.953125 C 41.773438 -124.953125 46.351562 -124.984375 51 -125.046875 C 55.644531 -125.109375 60.191406 -124.671875 64.640625 -123.734375 C 69.097656 -122.796875 73.207031 -120.882812 76.96875 -118 C 81.226562 -114.851562 84.238281 -110.832031 86 -105.9375 C 87.757812 -101.050781 89.390625 -96.222656 90.890625 -91.453125 C 92.398438 -94.085938 93.75 -96.910156 94.9375 -99.921875 C 96.132812 -102.929688 96.828125 -105.972656 97.015625 -109.046875 C 97.203125 -112.128906 96.476562 -115.050781 94.84375 -117.8125 C 90.457031 -121.570312 85.378906 -124.109375 79.609375 -125.421875 C 73.835938 -126.742188 68.191406 -127.65625 62.671875 -128.15625 C 52.753906 -128.53125 42.804688 -128.65625 32.828125 -128.53125 C 22.859375 -128.40625 12.859375 -128.40625 2.828125 -128.53125 Z M 101.625 -114.234375 C 102.125 -108.335938 101.304688 -102.722656 99.171875 -97.390625 C 97.035156 -92.054688 94.78125 -86.816406 92.40625 -81.671875 C 90.144531 -76.898438 89.890625 -71.878906 91.640625 -66.609375 C 93.398438 -61.347656 96.601562 -57.460938 101.25 -54.953125 C 103.125 -54.828125 104.4375 -55.359375 105.1875 -56.546875 C 105.945312 -57.742188 106.390625 -59.21875 106.515625 -60.96875 C 106.640625 -62.726562 106.734375 -64.484375 106.796875 -66.234375 C 106.859375 -67.992188 107.140625 -69.503906 107.640625 -70.765625 C 108.265625 -63.234375 107.445312 -55.828125 105.1875 -48.546875 C 102.9375 -41.273438 99.519531 -34.628906 94.9375 -28.609375 C 90.363281 -22.585938 84.75 -17.691406 78.09375 -13.921875 C 78.71875 -15.804688 79.375 -17.65625 80.0625 -19.46875 C 80.757812 -21.289062 81.359375 -23.144531 81.859375 -25.03125 C 82.992188 -28.164062 83.429688 -31.332031 83.171875 -34.53125 C 82.921875 -37.726562 82.484375 -40.925781 81.859375 -44.125 C 81.234375 -47.320312 80.859375 -50.492188 80.734375 -53.640625 C 83.117188 -50.117188 84.5625 -46.285156 85.0625 -42.140625 C 85.5625 -38.003906 86 -33.929688 86.375 -29.921875 C 88.132812 -32.429688 89.703125 -35.160156 91.078125 -38.109375 C 92.460938 -41.054688 92.90625 -44.097656 92.40625 -47.234375 C 92.28125 -53.003906 90.550781 -58.207031 87.21875 -62.84375 C 83.894531 -67.488281 80.414062 -71.757812 76.78125 -75.65625 C 76.78125 -70.632812 75.773438 -65.832031 73.765625 -61.25 C 71.765625 -56.675781 69.882812 -52.066406 68.125 -47.421875 C 66.863281 -43.785156 67.269531 -40.492188 69.34375 -37.546875 C 71.414062 -34.597656 73.832031 -32.179688 76.59375 -30.296875 L 80.171875 -40.65625 C 80.546875 -35.507812 79.757812 -30.457031 77.8125 -25.5 C 75.875 -20.539062 72.957031 -16.304688 69.0625 -12.796875 C 67.050781 -10.910156 64.726562 -9.304688 62.09375 -7.984375 C 59.46875 -6.671875 57.773438 -4.507812 57.015625 -1.5 C 63.921875 -2.007812 70.476562 -3.769531 76.6875 -6.78125 C 82.894531 -9.789062 88.410156 -13.738281 93.234375 -18.625 C 98.066406 -23.519531 102.019531 -29.039062 105.09375 -35.1875 C 108.175781 -41.332031 110.09375 -47.859375 110.84375 -54.765625 C 111.46875 -58.023438 111.59375 -61.285156 111.21875 -64.546875 C 110.84375 -67.804688 110.40625 -71.066406 109.90625 -74.328125 C 109.40625 -77.597656 109.28125 -80.863281 109.53125 -84.125 C 111.90625 -79.101562 113.21875 -73.863281 113.46875 -68.40625 C 113.726562 -62.945312 113.734375 -57.519531 113.484375 -52.125 C 115.984375 -54.507812 118.144531 -57.207031 119.96875 -60.21875 C 121.789062 -63.226562 122.828125 -66.488281 123.078125 -70 C 123.703125 -75.769531 123.070312 -81.351562 121.1875 -86.75 C 119.3125 -92.144531 116.644531 -97.160156 113.1875 -101.796875 C 109.738281 -106.441406 105.882812 -110.585938 101.625 -114.234375 Z M 101.625 -114.234375 "/></g></g></g></g></g><path fill="#01adef" d="M 334.746094 718.992188 C 361.390625 718.472656 387.132812 714.738281 410.289062 708.203125 L 449.429688 660.082031 C 456.96875 661.140625 464.949219 658.332031 470.164062 651.652344 C 476.429688 643.625 476.351562 632.113281 469.980469 624.164062 C 461.523438 613.613281 446.070312 612.976562 436.78125 622.269531 C 431.636719 627.410156 429.535156 634.4375 430.472656 641.125 L 334.746094 718.992188 " fill-opacity="1" fill-rule="nonzero"/><g clip-path="url(#505e443b88)"><path fill="#80cc28" d="M 288.894531 780.160156 C 288.894531 780.160156 292.757812 804.597656 332.539062 806.074219 C 408.808594 808.902344 409.976562 886.582031 409.976562 886.582031 C 409.976562 886.582031 393.285156 832.808594 329.09375 825.042969 C 329.09375 825.042969 379.484375 841.074219 394.925781 877.710938 C 373.425781 871.007812 340.632812 875.085938 314.976562 860.179688 C 267.121094 832.375 288.894531 780.160156 288.894531 780.160156 " fill-opacity="1" fill-rule="nonzero"/></g><path fill="#80cc28" d="M 414.433594 757.601562 C 414.433594 757.601562 408.746094 770 387.410156 764.863281 C 346.503906 755.019531 334.328125 796.078125 334.328125 796.078125 C 334.328125 796.078125 351.191406 770.019531 386.421875 775.445312 C 386.421875 775.445312 357.285156 776.460938 343.636719 793.609375 C 356.046875 793.25 372.847656 800.292969 388.683594 796.195312 C 418.222656 788.558594 414.433594 757.601562 414.433594 757.601562 " fill-opacity="1" fill-rule="nonzero"/><path fill="#80cc28" d="M 208.105469 621.789062 C 208.105469 621.789062 210.695312 642.121094 243.59375 644.34375 C 306.675781 648.59375 305.703125 712.945312 305.703125 712.945312 C 305.703125 712.945312 293.222656 668.003906 240.269531 659.960938 C 240.269531 659.960938 281.59375 674.503906 293.460938 705.222656 C 275.824219 699.132812 248.570312 701.6875 227.699219 688.703125 C 188.765625 664.480469 208.105469 621.789062 208.105469 621.789062 " fill-opacity="1" fill-rule="nonzero"/><g clip-path="url(#0550755178)"><path fill="#01adef" d="M 224.5 774.316406 C 222.53125 765.84375 221.394531 757.371094 221.023438 748.984375 C 257.71875 762.007812 308.136719 763.949219 361.0625 751.652344 C 369.5 749.691406 377.722656 747.429688 385.695312 744.902344 C 367.617188 748.058594 348.359375 749.761719 328.371094 749.761719 C 270.882812 749.761719 219.386719 735.6875 184.695312 713.476562 C 183.066406 722.210938 182.207031 731.214844 182.207031 740.417969 C 182.207031 821.144531 247.644531 886.582031 328.371094 886.582031 C 342.46875 886.582031 356.101562 884.582031 368.996094 880.855469 C 302.296875 885.75 240.109375 841.507812 224.5 774.316406 " fill-opacity="1" fill-rule="nonzero"/></g><path fill="#01adef" d="M 467.371094 690.394531 C 433.804688 711.882812 383.992188 725.496094 328.371094 725.496094 C 272.753906 725.496094 222.9375 711.882812 189.371094 690.394531 C 188.246094 696.441406 187.503906 702.628906 187.171875 708.917969 C 222.433594 729.632812 272.636719 742.59375 328.371094 742.59375 C 420.96875 742.59375 467.371094 690.394531 467.371094 690.394531 " fill-opacity="1" fill-rule="nonzero"/><path fill="#80cc28" d="M 370.398438 667.367188 C 370.398438 676.101562 363.320312 683.183594 354.589844 683.183594 C 345.855469 683.183594 338.773438 676.101562 338.773438 667.367188 C 338.773438 658.636719 345.855469 651.554688 354.589844 651.554688 C 363.320312 651.554688 370.398438 658.636719 370.398438 667.367188 " fill-opacity="1" fill-rule="nonzero"/><path fill="#80cc28" d="M 319.457031 646.953125 C 319.457031 653.53125 314.125 658.859375 307.550781 658.859375 C 300.976562 658.859375 295.644531 653.53125 295.644531 646.953125 C 295.644531 640.375 300.976562 635.042969 307.550781 635.042969 C 314.125 635.042969 319.457031 640.375 319.457031 646.953125 " fill-opacity="1" fill-rule="nonzero"/><g clip-path="url(#f760784f19)"><path fill="#80cc28" d="M 377.53125 612.351562 C 377.53125 617.566406 373.300781 621.789062 368.089844 621.789062 C 362.875 621.789062 358.644531 617.566406 358.644531 612.351562 C 358.644531 607.136719 362.875 602.910156 368.089844 602.910156 C 373.300781 602.910156 377.53125 607.136719 377.53125 612.351562 " fill-opacity="1" fill-rule="nonzero"/></g></svg>